<svg width="80" height="80" viewBox="0 0 80 80" fill="none" xmlns="http://www.w3.org/2000/svg">
<path d="M76 60C78.2091 60 80.0207 58.2047 79.8001 56.0066C79.4105 52.1237 78.454 48.3113 76.9552 44.6927C74.945 39.8396 71.9986 35.4301 68.2842 31.7157C64.5699 28.0014 60.1603 25.055 55.3073 23.0448C50.4543 21.0346 45.2528 20 40 20C34.7471 20 29.5457 21.0346 24.6926 23.0448C19.8396 25.055 15.43 28.0014 11.7157 31.7157C8.00135 35.4301 5.05497 39.8396 3.04479 44.6927C1.54589 48.3113 0.589402 52.1237 0.199802 56.0066C-0.0207466 58.2047 1.79083 60 3.99997 60L40 60H76Z" fill="#82CAB2"/>
<path d="M35.8206 42.9854C35.8206 42.5914 35.7273 42.2009 35.5464 41.8369C35.3655 41.4731 35.1001 41.1427 34.766 40.8643C34.4318 40.5858 34.0354 40.3646 33.5988 40.2139C33.162 40.0631 32.6934 39.9854 32.2206 39.9854C31.7479 39.9854 31.2793 40.0631 30.8425 40.2139C30.4059 40.3646 30.0095 40.5858 29.6753 40.8643C29.3412 41.1427 29.0758 41.4731 28.8949 41.8369C28.7139 42.2009 28.6206 42.5914 28.6206 42.9854C28.6206 43.5376 28.0834 43.9854 27.4206 43.9854C26.7579 43.9854 26.2206 43.5376 26.2206 42.9854C26.2206 42.3288 26.3762 41.6788 26.6777 41.0723C26.9792 40.4656 27.4213 39.9145 27.9785 39.4502C28.5356 38.9859 29.197 38.6175 29.9249 38.3662C30.6528 38.115 31.4328 37.9854 32.2206 37.9854C33.0085 37.9854 33.7885 38.115 34.5163 38.3662C35.2443 38.6175 35.9057 38.9859 36.4628 39.4502C37.02 39.9145 37.4621 40.4656 37.7636 41.0723C38.0651 41.6788 38.2206 42.3288 38.2206 42.9854C38.2206 43.5376 37.6834 43.9854 37.0206 43.9854C36.3579 43.9854 35.8206 43.5376 35.8206 42.9854Z" fill="#001A72"/>
<path d="M50.7792 42.9854C50.7792 42.5914 50.7015 42.2009 50.5507 41.8369C50.4 41.4731 50.1788 41.1427 49.9003 40.8643C49.6219 40.5858 49.2915 40.3646 48.9277 40.2139C48.5637 40.0631 48.1732 39.9854 47.7792 39.9854C47.3853 39.9854 46.9948 40.0631 46.6308 40.2139C46.267 40.3646 45.9366 40.5858 45.6581 40.8643C45.3797 41.1427 45.1585 41.4731 45.0078 41.8369C44.857 42.2009 44.7792 42.5914 44.7792 42.9854C44.7792 43.5376 44.3315 43.9854 43.7792 43.9854C43.227 43.9854 42.7792 43.5376 42.7792 42.9854C42.7792 42.3288 42.9089 41.6788 43.1601 41.0723C43.4114 40.4656 43.7798 39.9145 44.2441 39.4502C44.7084 38.9859 45.2595 38.6175 45.8661 38.3662C46.4727 38.115 47.1227 37.9854 47.7792 37.9854C48.4358 37.9854 49.0857 38.115 49.6923 38.3662C50.2989 38.6175 50.8501 38.9859 51.3144 39.4502C51.7787 39.9145 52.1471 40.4656 52.3984 41.0723C52.6496 41.6788 52.7792 42.3288 52.7792 42.9854C52.7792 43.5376 52.3315 43.9854 51.7792 43.9854C51.227 43.9854 50.7792 43.5376 50.7792 42.9854Z" fill="#001A72"/>
<path d="M53.7792 37.8687C53.7792 37.4747 53.7015 37.0842 53.5507 36.7202C53.4 36.3564 53.1788 36.026 52.9003 35.7476C52.6219 35.4691 52.2915 35.2479 51.9277 35.0972C51.5637 34.9464 51.1732 34.8687 50.7792 34.8687C50.227 34.8687 49.7792 34.4209 49.7792 33.8687C49.7792 33.3164 50.227 32.8687 50.7792 32.8687C51.4358 32.8687 52.0857 32.9983 52.6923 33.2495C53.2989 33.5008 53.8501 33.8692 54.3144 34.3335C54.7787 34.7978 55.1471 35.3489 55.3984 35.9556C55.6496 36.5621 55.7792 37.2121 55.7792 37.8687C55.7792 38.4209 55.3315 38.8687 54.7792 38.8687C54.227 38.8687 53.7792 38.4209 53.7792 37.8687Z" fill="#001A72"/>
<path d="M26.2206 37.8687C26.2206 37.4747 26.2984 37.0842 26.4492 36.7202C26.5999 36.3564 26.8211 36.026 27.0995 35.7476C27.378 35.4691 27.7084 35.2479 28.0722 35.0972C28.4362 34.9464 28.8267 34.8687 29.2206 34.8687C29.7729 34.8687 30.2206 34.4209 30.2206 33.8687C30.2206 33.3164 29.7729 32.8687 29.2206 32.8687C28.5641 32.8687 27.9141 32.9983 27.3076 33.2495C26.7009 33.5008 26.1498 33.8692 25.6855 34.3335C25.2212 34.7978 24.8528 35.3489 24.6015 35.9556C24.3503 36.5621 24.2206 37.2121 24.2206 37.8687C24.2206 38.4209 24.6684 38.8687 25.2206 38.8687C25.7729 38.8687 26.2206 38.4209 26.2206 37.8687Z" fill="#001A72"/>
<path d="M36.3999 48.1313C36.3999 48.5253 36.4932 48.9158 36.6742 49.2798C36.8551 49.6436 37.1205 49.974 37.4546 50.2524C37.7888 50.5309 38.1852 50.7521 38.6218 50.9028C39.0586 51.0536 39.5272 51.1313 39.9999 51.1313C40.4727 51.1313 40.9413 51.0536 41.3781 50.9028C41.8147 50.7521 42.2111 50.5309 42.5453 50.2524C42.8794 49.974 43.1448 49.6436 43.3257 49.2798C43.5066 48.9158 43.5999 48.5253 43.5999 48.1313C43.5999 47.5791 44.1372 47.1313 44.7999 47.1313C45.4627 47.1313 45.9999 47.5791 45.9999 48.1313C45.9999 48.7879 45.8444 49.4379 45.5429 50.0444C45.2414 50.6511 44.7993 51.2022 44.2421 51.6665C43.685 52.1308 43.0236 52.4992 42.2956 52.7505C41.5678 53.0017 40.7878 53.1313 39.9999 53.1313C39.2121 53.1313 38.4321 53.0017 37.7042 52.7505C36.9763 52.4992 36.3149 52.1308 35.7578 51.6665C35.2006 51.2022 34.7585 50.6511 34.457 50.0444C34.1555 49.4379 33.9999 48.7879 33.9999 48.1313C33.9999 47.5791 34.5372 47.1313 35.1999 47.1313C35.8627 47.1313 36.3999 47.5791 36.3999 48.1313Z" fill="#001A72"/>
</svg>
