<svg width="80" height="80" viewBox="0 0 80 80" fill="none" xmlns="http://www.w3.org/2000/svg">
<path d="M36.1958 14.2827C37.3932 10.5975 42.6068 10.5975 43.8042 14.2827L48.0825 27.4499C48.618 29.098 50.1538 30.2139 51.8867 30.2139H65.7315C69.6064 30.2139 71.2175 35.1723 68.0827 37.4499L56.882 45.5877C55.48 46.6063 54.8934 48.4117 55.4289 50.0598L59.7072 63.227C60.9046 66.9123 56.6867 69.9767 53.5518 67.6991L42.3511 59.5614C40.9492 58.5428 39.0508 58.5428 37.6489 59.5614L26.4482 67.6991C23.3133 69.9767 19.0954 66.9123 20.2928 63.227L24.5711 50.0598C25.1066 48.4117 24.52 46.6063 23.118 45.5877L11.9173 37.4499C8.78247 35.1723 10.3936 30.2139 14.2685 30.2139H28.1133C29.8462 30.2139 31.382 29.098 31.9175 27.4499L36.1958 14.2827Z" fill="#FFE04B"/>
<path d="M35.2208 38.7107C35.2208 38.3167 35.143 37.9262 34.9922 37.5623C34.8415 37.1984 34.6203 36.8681 34.3419 36.5896C34.0634 36.3111 33.733 36.09 33.3692 35.9392C33.0052 35.7884 32.6147 35.7107 32.2208 35.7107C31.8268 35.7107 31.4363 35.7884 31.0723 35.9392C30.7085 36.09 30.3781 36.3111 30.0997 36.5896C29.8212 36.8681 29.6 37.1984 29.4493 37.5623C29.2985 37.9262 29.2208 38.3167 29.2208 38.7107C29.2208 39.263 28.773 39.7107 28.2208 39.7107C27.6685 39.7107 27.2208 39.263 27.2208 38.7107C27.2208 38.0542 27.3504 37.4042 27.6016 36.7976C27.8529 36.191 28.2213 35.6398 28.6856 35.1755C29.1499 34.7112 29.7011 34.3428 30.3077 34.0916C30.9143 33.8403 31.5642 33.7107 32.2208 33.7107C32.8773 33.7107 33.5273 33.8403 34.1339 34.0916C34.7405 34.3428 35.2916 34.7112 35.7559 35.1755C36.2202 35.6398 36.5886 36.191 36.8399 36.7976C37.0911 37.4042 37.2208 38.0542 37.2208 38.7107C37.2208 39.263 36.773 39.7107 36.2208 39.7107C35.6685 39.7107 35.2208 39.263 35.2208 38.7107Z" fill="#001A72"/>
<path d="M50.7794 38.7107C50.7794 38.3167 50.7016 37.9262 50.5508 37.5623C50.4001 37.1984 50.1789 36.8681 49.9005 36.5896C49.622 36.3111 49.2916 36.09 48.9278 35.9392C48.5638 35.7884 48.1733 35.7107 47.7794 35.7107C47.3854 35.7107 46.9949 35.7884 46.6309 35.9392C46.2671 36.09 45.9367 36.3111 45.6583 36.5896C45.3798 36.8681 45.1586 37.1984 45.0079 37.5623C44.8571 37.9262 44.7794 38.3167 44.7794 38.7107C44.7794 39.263 44.3316 39.7107 43.7794 39.7107C43.2271 39.7107 42.7794 39.263 42.7794 38.7107C42.7794 38.0542 42.909 37.4042 43.1602 36.7976C43.4115 36.191 43.7799 35.6398 44.2442 35.1755C44.7085 34.7112 45.2596 34.3428 45.8663 34.0916C46.4728 33.8403 47.1228 33.7107 47.7794 33.7107C48.4359 33.7107 49.0859 33.8403 49.6924 34.0916C50.2991 34.3428 50.8502 34.7112 51.3145 35.1755C51.7788 35.6398 52.1472 36.191 52.3985 36.7976C52.6497 37.4042 52.7794 38.0542 52.7794 38.7107C52.7794 39.263 52.3316 39.7107 51.7794 39.7107C51.2271 39.7107 50.7794 39.263 50.7794 38.7107Z" fill="#001A72"/>
<path d="M37.0001 43.8564C37.0001 44.2504 37.0778 44.6409 37.2286 45.0049C37.3793 45.3687 37.6005 45.6991 37.879 45.9775C38.1574 46.256 38.4878 46.4772 38.8516 46.6279C39.2156 46.7787 39.6061 46.8564 40.0001 46.8564C40.394 46.8564 40.7845 46.7787 41.1485 46.6279C41.5123 46.4772 41.8427 46.256 42.1212 45.9775C42.3996 45.6991 42.6208 45.3687 42.7715 45.0049C42.9223 44.6409 43.0001 44.2504 43.0001 43.8564C43.0001 43.3042 43.4478 42.8564 44.0001 42.8564C44.5523 42.8564 45.0001 43.3042 45.0001 43.8564C45.0001 44.513 44.8704 45.163 44.6192 45.7695C44.3679 46.3762 43.9995 46.9273 43.5352 47.3916C43.0709 47.8559 42.5198 48.2243 41.9131 48.4756C41.3066 48.7268 40.6566 48.8564 40.0001 48.8564C39.3435 48.8564 38.6935 48.7268 38.087 48.4756C37.4803 48.2243 36.9292 47.8559 36.4649 47.3916C36.0006 46.9273 35.6322 46.3762 35.3809 45.7695C35.1297 45.163 35.0001 44.513 35.0001 43.8564C35.0001 43.3042 35.4478 42.8564 36.0001 42.8564C36.5523 42.8564 37.0001 43.3042 37.0001 43.8564Z" fill="#001A72"/>
</svg>
