<svg width="80" height="80" viewBox="0 0 80 80" fill="none" xmlns="http://www.w3.org/2000/svg">
<path d="M8.00018 12C8.00018 9.79086 9.79104 8 12.0002 8H68.0002C70.2093 8 72.0002 9.79086 72.0002 12V68C72.0002 70.2091 70.2093 72 68.0002 72H12.0002C9.79104 72 8.00018 70.2091 8.00018 68V12Z" fill="#FF6259"/>
<path d="M55.0002 31.6689C55.5525 31.6689 56.0002 32.1167 56.0002 32.6689C56.0002 33.2212 55.5525 33.6689 55.0002 33.6689H25.0002C24.4479 33.6689 24.0002 33.2212 24.0002 32.6689C24.0002 32.1167 24.4479 31.6689 25.0002 31.6689H55.0002Z" fill="#001A72"/>
<path d="M48.0002 38.832C48.0002 39.3843 47.5525 39.832 47.0002 39.832C46.4479 39.832 46.0002 39.3843 46.0002 38.832V32.832C46.0002 32.2797 46.4479 31.832 47.0002 31.832C47.5525 31.832 48.0002 32.2797 48.0002 32.832V38.832Z" fill="#001A72"/>
<path d="M34.0002 38.832C34.0002 39.3843 33.5525 39.832 33.0002 39.832C32.4479 39.832 32.0002 39.3843 32.0002 38.832L32.0002 32.832C32.0002 32.2797 32.4479 31.832 33.0002 31.832C33.5525 31.832 34.0002 32.2797 34.0002 32.832V38.832Z" fill="#001A72"/>
<path d="M43.0002 48.3311C43.0002 47.9371 42.9224 47.5466 42.7717 47.1826C42.6209 46.8188 42.3998 46.4884 42.1213 46.21C41.8428 45.9315 41.5124 45.7103 41.1486 45.5596C40.7846 45.4088 40.3941 45.3311 40.0002 45.3311C39.6062 45.3311 39.2157 45.4088 38.8517 45.5596C38.4879 45.7103 38.1576 45.9315 37.8791 46.21C37.6006 46.4884 37.3795 46.8188 37.2287 47.1826C37.0779 47.5466 37.0002 47.9371 37.0002 48.3311C37.0002 48.8833 36.5525 49.3311 36.0002 49.3311C35.4479 49.3311 35.0002 48.8833 35.0002 48.3311C35.0002 47.6745 35.1298 47.0245 35.381 46.418C35.6323 45.8113 36.0007 45.2602 36.465 44.7959C36.9293 44.3316 37.4805 43.9632 38.0871 43.7119C38.6937 43.4607 39.3436 43.3311 40.0002 43.3311C40.6567 43.3311 41.3067 43.4607 41.9133 43.7119C42.5199 43.9632 43.071 44.3316 43.5353 44.7959C43.9996 45.2602 44.368 45.8113 44.6193 46.418C44.8705 47.0245 45.0002 47.6745 45.0002 48.3311C45.0002 48.8833 44.5525 49.3311 44.0002 49.3311C43.4479 49.3311 43.0002 48.8833 43.0002 48.3311Z" fill="#001A72"/>
</svg>
