<svg width="46" height="46" viewBox="0 0 46 46" fill="none" xmlns="http://www.w3.org/2000/svg">
<g filter="url(#filter0_d_2121_6188)">
<path d="M21.7967 1.69301C23.9428 -1.33727 28.7005 -0.0624498 29.0439 3.63488L29.9411 13.2952C30.0491 14.4576 30.6595 15.5148 31.6122 16.1896L39.5296 21.7967C42.5599 23.9427 41.2851 28.7005 37.5877 29.0439L27.9275 29.9411C26.765 30.049 25.7078 30.6594 25.0331 31.6121L19.4259 39.5296C17.2799 42.5599 12.5222 41.285 12.1788 37.5877L11.2816 27.9274C11.1736 26.765 10.5632 25.7078 9.61049 25.033L1.69305 19.4259C-1.33724 17.2798 -0.0624182 12.5221 3.63491 12.1787L13.2952 11.2815C14.4576 11.1736 15.5149 10.5632 16.1896 9.61046L21.7967 1.69301Z" fill="white"/>
<path d="M22.6131 2.27133C24.2226 -0.00139107 27.7907 0.954691 28.0483 3.72769L28.9458 13.3878C29.0808 14.8406 29.8431 16.1622 31.0337 17.0056L38.9518 22.6132C41.2241 24.2228 40.2682 27.7907 37.4954 28.0484L27.8344 28.9457C26.3818 29.0808 25.0609 29.8434 24.2176 31.0339L18.61 38.9519C17.0005 41.2244 13.4325 40.2682 13.1748 37.4955L12.2775 27.8345C12.1424 26.3817 11.379 25.0607 10.1883 24.2174L2.27122 18.6101C-0.00149496 17.0005 0.954586 13.4324 3.72758 13.1749L13.3877 12.2773C14.8407 12.1424 16.1623 11.3793 17.0057 10.1884L22.6131 2.27133Z" stroke="#FFD61E" stroke-width="2"/>
</g>
<defs>
<filter id="filter0_d_2121_6188" x="0" y="0" width="45.2227" height="45.2227" filterUnits="userSpaceOnUse" color-interpolation-filters="sRGB">
<feFlood flood-opacity="0" result="BackgroundImageFix"/>
<feColorMatrix in="SourceAlpha" type="matrix" values="0 0 0 0 0 0 0 0 0 0 0 0 0 0 0 0 0 0 127 0" result="hardAlpha"/>
<feOffset dx="4" dy="4"/>
<feComposite in2="hardAlpha" operator="out"/>
<feColorMatrix type="matrix" values="0 0 0 0 1 0 0 0 0 0.839216 0 0 0 0 0.117647 0 0 0 1 0"/>
<feBlend mode="normal" in2="BackgroundImageFix" result="effect1_dropShadow_2121_6188"/>
<feBlend mode="normal" in="SourceGraphic" in2="effect1_dropShadow_2121_6188" result="shape"/>
</filter>
</defs>
</svg>
