<svg width="75" height="40" viewBox="0 0 75 40" fill="none" xmlns="http://www.w3.org/2000/svg" preserveAspectRatio="xMidYMid meet">
<g clip-path="url(#clip0_2121_6170)">
<path d="M12.155 39.3178H74.2015V12.155L62.5736 0.5271H0.5271V27.6899L12.155 39.3178Z" fill="#FBFEFF"/>
<path fill-rule="evenodd" clip-rule="evenodd" d="M0.0620117 0.0620117H62.7663L74.6667 11.9624V39.7829H11.9624L0.0620117 27.8826V0.0620117ZM0.992244 1.65002V27.4973L11.6899 38.1949V12.3477L0.992244 1.65002ZM1.65002 0.992244L12.3477 11.6899H73.0787L62.381 0.992244H1.65002ZM73.7364 38.8527H12.6202V12.6202H73.7364V38.8527Z" fill="#001A72"/>
<path d="M23.5969 23.0078C23.5969 23.938 22.9768 24.7442 21.4884 24.7442C20.8372 24.7442 20.3101 24.5892 19.845 24.4032V23.1008C20.3411 23.3489 20.9302 23.5039 21.4574 23.5039C21.9535 23.5039 22.2016 23.3489 22.2016 23.0698C22.2016 22.2016 19.845 22.4807 19.845 20.7132C19.845 19.628 20.7132 18.9768 21.9225 18.9768C22.4186 18.9768 22.8837 19.1008 23.3799 19.3799V20.7132C22.7287 20.3101 22.2636 20.1861 21.8915 20.1861C21.4574 20.1861 21.2093 20.3411 21.2093 20.6202C21.1783 21.4264 23.5969 21.1163 23.5969 23.0078Z" fill="#001A72"/>
<path d="M24.7751 21.8605C24.7751 20.2791 26.0775 18.9768 27.6589 18.9768C29.2403 18.9768 30.5426 20.2791 30.5426 21.8605C30.5426 23.4419 29.2403 24.7442 27.6589 24.7442C26.0775 24.7132 24.7751 23.4419 24.7751 21.8605ZM29.1162 21.8605C29.1162 20.9923 28.4651 20.3411 27.6589 20.3411C26.8527 20.3411 26.2015 20.9923 26.2015 21.8605C26.2015 22.7287 26.8527 23.3799 27.6589 23.3799C28.4651 23.3799 29.1162 22.7287 29.1162 21.8605Z" fill="#001A72"/>
<path d="M33.7675 18.6357V19.1008H35.5969L34.9768 20.4031H33.7985V24.6202H32.4651V20.3721H31.5349V19.0698H32.4651V18.5426C32.4651 16.8682 33.3334 16.031 34.6977 16.031C35.0388 16.031 35.3489 16.093 35.6279 16.155V17.4574C35.3799 17.3643 35.1008 17.3333 34.8217 17.3333C34.0775 17.3333 33.7675 17.8295 33.7675 18.6357Z" fill="#001A72"/>
<path d="M38.3876 20.372V22.5736C38.3876 23.1627 38.7287 23.4108 39.2558 23.4108C39.5969 23.4108 39.938 23.3177 40.217 23.1317V24.496C39.8449 24.6511 39.5039 24.7441 39.0077 24.7441C37.7984 24.7441 37.0542 24.0929 37.0542 22.7596V20.403H36.248V19.1007H37.0542V17.6743L38.3876 17.3333V19.1007H40.217V20.403H38.3876V20.372Z" fill="#001A72"/>
<path d="M49.8604 19.1008L48.093 24.6202H46.7596L45.5503 20.8373L44.31 24.6202H42.9767L41.2092 19.1008H42.7286L43.7209 22.7908L44.8992 19.1008H46.2325L47.4108 22.7908L48.403 19.1008C48.403 19.1008 49.8604 19.1008 49.8604 19.1008Z" fill="#001A72"/>
<path d="M50.5426 21.8605C50.5426 20.2791 51.6899 18.9768 53.2713 18.9768C53.8914 18.9768 54.3876 19.1629 54.7597 19.4729V19.1008H56.093V24.6202H54.7907V24.1861C54.4186 24.5272 53.8914 24.7442 53.2403 24.7442C51.7209 24.7132 50.5426 23.4419 50.5426 21.8605ZM54.8837 21.8605C54.8837 20.9923 54.2325 20.3411 53.4263 20.3411C52.6201 20.3411 51.969 20.9923 51.969 21.8605C51.969 22.7287 52.6201 23.3799 53.4263 23.3799C54.2325 23.3799 54.8837 22.7287 54.8837 21.8605Z" fill="#001A72"/>
<path d="M57.9845 19.1008H59.2868V19.845C59.6899 19.1008 60.4341 18.9768 61.0853 18.9768V20.5582C60.155 20.3101 59.3178 20.8373 59.3178 22.0156V24.5892H57.9845V19.1008Z" fill="#001A72"/>
<path d="M65.3023 23.4419C65.8295 23.4419 66.4496 23.3489 67.0698 23.1008L66.3876 24.4962C66.0775 24.6202 65.6124 24.7442 65.0543 24.7442C63.1008 24.7442 61.9225 23.5349 61.9225 21.8605C61.9225 20.2791 63.1008 18.9768 64.8062 18.9768C65.9535 18.9768 66.8837 19.566 67.2558 20.3101V22.3256H63.3488C63.5349 22.9768 64.1861 23.4419 65.3023 23.4419ZM63.3178 21.2714H66.2016C66.0155 20.6202 65.4574 20.2171 64.7442 20.2171C64.062 20.2171 63.5349 20.6512 63.3178 21.2714Z" fill="#001A72"/>
<path d="M27.5659 29.2714V32.8993H26.2326V29.4884C26.2326 28.8993 25.7984 28.5582 25.3643 28.5582C24.8992 28.5582 24.4961 28.8993 24.4961 29.4884V32.8993H23.1628V29.4884C23.1628 28.8993 22.7287 28.5582 22.2946 28.5582C21.8295 28.5582 21.4263 28.8993 21.4263 29.4884V32.8993H20.093V27.3799H21.3953V27.783C21.7054 27.4109 22.1085 27.2869 22.6357 27.2869C23.2248 27.2869 23.7209 27.5349 24.062 28C24.4961 27.5039 25.0543 27.2869 25.7364 27.2869C26.7597 27.2869 27.5659 28.0931 27.5659 29.2714Z" fill="#001A72"/>
<path d="M28.9612 30.1396C28.9612 28.5582 30.1085 27.2559 31.6899 27.2559C32.31 27.2559 32.8061 27.4419 33.1782 27.752V27.3799H34.5116V32.8993H33.2092V32.4652C32.8372 32.8062 32.31 33.0233 31.6589 33.0233C30.1395 33.0233 28.9612 31.721 28.9612 30.1396ZM33.3023 30.1396C33.3023 29.2714 32.6511 28.6202 31.8449 28.6202C31.0387 28.6202 30.3875 29.2714 30.3875 30.1396C30.3875 31.0078 31.0387 31.659 31.8449 31.659C32.6511 31.659 33.3023 31.0078 33.3023 30.1396Z" fill="#001A72"/>
<path d="M36.3411 27.3799H37.6434V27.783C38.0465 27.3799 38.5736 27.2559 39.1008 27.2559C40.248 27.2559 41.1783 28.1241 41.1783 29.3024V32.8683H39.8449V29.6124C39.8449 29.0233 39.3798 28.5582 38.7907 28.5582C38.2015 28.5582 37.7364 29.0233 37.7364 29.6124V32.8993H36.4031V27.3799H36.3411Z" fill="#001A72"/>
<path d="M46.5426 31.2869C46.5426 32.2171 45.9224 33.0233 44.4341 33.0233C43.7829 33.0233 43.2558 32.8683 42.7906 32.6822V31.3799C43.2868 31.628 43.8759 31.783 44.4031 31.783C44.8992 31.783 45.1472 31.628 45.1472 31.3489C45.1472 30.4807 42.7906 30.7597 42.7906 28.9923C42.7906 27.907 43.6589 27.2559 44.8682 27.2559C45.3643 27.2559 45.8294 27.3799 46.3255 27.659V28.9923C45.6744 28.5892 45.2093 28.4652 44.8372 28.4652C44.4031 28.4652 44.155 28.6202 44.155 28.8993C44.124 29.7365 46.5426 29.4264 46.5426 31.2869Z" fill="#001A72"/>
<path d="M49.4263 27.3799V32.8993H48.093V27.3799H49.4263Z" fill="#001A72"/>
<path d="M50.8217 30.1396C50.8217 28.5582 52.124 27.2559 53.7054 27.2559C55.2868 27.2559 56.5891 28.5582 56.5891 30.1396C56.5891 31.721 55.2868 33.0233 53.7054 33.0233C52.124 33.0233 50.8217 31.721 50.8217 30.1396ZM55.1627 30.1396C55.1627 29.2714 54.5116 28.6202 53.7054 28.6202C52.8992 28.6202 52.248 29.2714 52.248 30.1396C52.248 31.0078 52.8992 31.659 53.7054 31.659C54.5116 31.659 55.1627 31.0078 55.1627 30.1396Z" fill="#001A72"/>
<path d="M57.9535 27.3799H59.2558V27.783C59.6589 27.3799 60.1861 27.2559 60.7132 27.2559C61.8605 27.2559 62.7907 28.1241 62.7907 29.3024V32.8683H61.4574V29.6124C61.4574 29.0233 60.9923 28.5582 60.4031 28.5582C59.814 28.5582 59.3488 29.0233 59.3488 29.6124V32.8993H58.0155V27.3799H57.9535Z" fill="#001A72"/>
<path d="M65.4263 31.3799V31.5969H64.9612V32.8993H64.7132V31.5969H64.248V31.3799H65.4263Z" fill="#001A72"/>
<path d="M65.9535 31.3799L66.4496 32.5892L66.9148 31.3799H67.2248V32.8993H66.9768V31.783L66.5117 32.8993H66.2946L65.8295 31.783V32.8993H65.5814V31.3799H65.9535Z" fill="#001A72"/>
</g>
</svg>
